Coordinates
version=1
nRows=9
nColumns=24
inDegrees=yes

Units are S.I. units (second, meters, Newtons, ...)
Angles are in degrees.

endheader
time	pelvis_tilt	pelvis_list	pelvis_rotation	pelvis_tx	pelvis_ty	pelvis_tz	hip_flexion_r	hip_adduction_r	hip_rotation_r	knee_angle_r	ankle_angle_r	subtalar_angle_r	mtp_angle_r	hip_flexion_l	hip_adduction_l	hip_rotation_l	knee_angle_l	ankle_angle_l	subtalar_angle_l	mtp_angle_l	lumbar_extension	lumbar_bending	lumbar_rotation
      1.22066667	     -0.91844472	      4.80524919	     -3.53520499	      0.17335028	      1.01053079	      0.30812547	     13.64866475	     -7.52958970	     -2.12332970	    -65.74359541	     -9.92512964	     -5.64993715	      8.11821737	      7.28941183	     10.54284008	      8.03248512	    -13.03401184	      6.21538259	    -17.39689695	     -7.52788386	    -11.39629486	      1.81152286	     -1.33428261
      1.22483333	     -0.91368081	      4.59997556	     -3.56465498	      0.17833466	      1.01142993	      0.30804211	     14.18659944	     -7.26649623	     -2.15537540	    -65.54669577	     -8.91417636	     -5.93926564	      7.62665045	      6.73978391	     10.33055871	      8.15168370	    -12.58778531	      6.16565264	    -17.46631582	     -7.65527965	    -11.44305907	      2.12429518	     -1.66074121
      1.22900000	     -0.91751422	      4.32862859	     -3.61697766	      0.18335605	      1.01234853	      0.30800716	     14.69966302	     -6.91111228	     -2.16691735	    -65.23884934	     -7.97668071	     -6.16449295	      7.42982440	      6.20804025	     10.03559199	      8.16429430	    -12.16971943	      6.21121125	    -17.43203892	     -7.70808610	    -11.46690867	      2.51228112	     -1.77623486
      1.23316667	     -0.95196692	      4.10070441	     -3.64898734	      0.18833958	      1.01315497	      0.30797323	     15.24816760	     -6.60173119	     -2.20093631	    -64.90825848	     -7.03840824	     -6.49800109	      7.37504667	      5.72587818	      9.78537500	      8.18167081	    -11.77416356	      6.21975471	    -17.38910661	     -7.72625988	    -11.46636238	      2.80153336	     -1.85636100
      1.23733333	     -0.94009868	      3.85346293	     -3.66059088	      0.19334777	      1.01402861	      0.30786905	     15.70934395	     -6.28426034	     -2.26303875	    -64.47973816	     -6.14835926	     -6.71161971	      7.14023877	      5.16702841	      9.52606855	      8.28782482	    -11.32995999	      6.21429954	    -17.41919477	     -7.79312988	    -11.51482370	      3.20512421	     -2.23510470
      1.24150000	     -0.93649833	      3.62410330	     -3.65759820	      0.19832526	      1.01485942	      0.30775244	     16.17215733	     -5.98586463	     -2.34581253	    -64.01490884	     -5.18965142	     -6.95918515	      3.18552205	      4.61145143	      9.29335246	      8.48878178	    -10.87162040	      6.16010999	    -17.62896592	     -8.84983195	    -11.57279713	      3.52810325	     -2.34999272
      1.24566667	     -0.96619269	      3.36621963	     -3.68110691	      0.20332520	      1.01560896	      0.30770760	     16.65152962	     -5.63321099	     -2.39036541	    -63.46867808	     -4.37263165	     -7.22755753	      3.16007579	      4.13225748	      9.00610494	      8.44834643	    -10.48990454	      6.18847793	    -17.48812781	     -8.85184036	    -11.56912972	      3.91575291	     -2.59232557
      1.24983333	     -1.00453601	      3.12897769	     -3.67106855	      0.20828692	      1.01630130	      0.30763508	     17.12546810	     -5.30849100	     -2.46766803	    -62.87646651	     -3.52526872	     -7.54005227	      3.14674106	      3.67536566	      8.74664439	      8.47421250	    -10.13322330	      6.20426041	    -17.42152263	     -8.85573704	    -11.58285729	      4.23441138	     -2.70233450
      1.25400000	     -0.95721629	      2.86075192	     -3.64528645	      0.21331270	      1.01712666	      0.30752966	     17.46006847	     -4.96329377	     -2.57813440	    -62.17601385	     -2.78777668	     -7.84312989	      3.05123008	      3.08992953	      8.46023626	      8.56254378	     -9.71229631	      6.22768760	    -17.38438224	     -8.87486612	    -11.65795013	      4.63576030	     -3.08970400
